<?xml version="1.0" encoding="utf-8"?>
<!-- Generator: Adobe Illustrator 22.0.1, SVG Export Plug-In . SVG Version: 6.00 Build 0)  -->
<svg version="1.1" id="Layer_1" xmlns="http://www.w3.org/2000/svg" xmlns:xlink="http://www.w3.org/1999/xlink" x="0px" y="0px"
	 viewBox="0 0 512 512" style="enable-background:new 0 0 512 512;" xml:space="preserve">
<style type="text/css">
	.st0{fill:#FFFFFF;}
</style>
<path class="st0" d="M337.5,305.4H320l-6.6-5.5c20.8-25.2,33.9-57.1,33.9-93.3c0-79-63.5-142.6-142.2-142.6
	C127.5,64,64,127.6,64,206.6s63.5,142.6,142.2,142.6c35,0,67.8-13.2,93-34l6.6,5.5v17.6L415.2,448l32.8-32.9L337.5,305.4z
	 M206.2,305.4c-54.7,0-98.5-43.9-98.5-98.7c0-54.9,43.8-98.7,98.5-98.7c54.7,0,98.5,43.9,98.5,98.7
	C304.7,261.5,260.9,305.4,206.2,305.4z"/>
</svg>
